<svg width="106" height="20" viewBox="0 0 106 20" fill="none" xmlns="http://www.w3.org/2000/svg">
<circle cx="10" cy="10" r="10" fill="#184AFB"/>
<path d="M53.25 14.25H43.75L42.25 17H40.5L47.5 5H49.5L56.5 17H54.75L53.25 14.25ZM52.5 13L48.5 6L44.5 13H52.5ZM63.5 17.1719C62.7812 17.1719 62.1823 17.1224 61.7031 17.0234C61.2292 16.9297 60.8411 16.8281 60.5391 16.7188C60.237 16.6042 60.0078 16.4271 59.8516 16.1875C59.6953 15.9427 59.5781 15.7526 59.5 15.6172V17H58V5H59.5V8.85156C59.5677 8.74219 59.6797 8.625 59.8359 8.5C59.9974 8.36979 60.2292 8.25 60.5312 8.14062C60.8385 8.02604 61.2318 7.93229 61.7109 7.85938C62.1901 7.78646 62.7865 7.75 63.5 7.75C64.5 7.75 65.349 7.82552 66.0469 7.97656C66.7448 8.1276 67.3125 8.38542 67.75 8.75C68.1875 9.11458 68.5052 9.60417 68.7031 10.2188C68.901 10.8281 69 11.5938 69 12.5156C69 13.4219 68.901 14.1745 68.7031 14.7734C68.5052 15.3724 68.1875 15.849 67.75 16.2031C67.3125 16.5573 66.7448 16.8073 66.0469 16.9531C65.349 17.099 64.5 17.1719 63.5 17.1719ZM63.5 16C64.0833 16 64.5859 15.9818 65.0078 15.9453C65.4349 15.9089 65.7969 15.8438 66.0938 15.75C66.3906 15.6562 66.6302 15.526 66.8125 15.3594C67 15.1927 67.1432 14.9818 67.2422 14.7266C67.3464 14.4661 67.4141 14.1562 67.4453 13.7969C67.4818 13.4323 67.5 13.0052 67.5 12.5156C67.5 12.026 67.4818 11.599 67.4453 11.2344C67.4141 10.8698 67.3464 10.5599 67.2422 10.3047C67.1432 10.0443 67 9.83073 66.8125 9.66406C66.6302 9.49219 66.3906 9.35938 66.0938 9.26562C65.7969 9.16667 65.4349 9.09896 65.0078 9.0625C64.5859 9.02604 64.0833 9.00781 63.5 9.00781C63 9.00781 62.5547 9.02083 62.1641 9.04688C61.7734 9.06771 61.4297 9.11979 61.1328 9.20312C60.8359 9.28646 60.5833 9.40625 60.375 9.5625C60.1719 9.71875 60.0052 9.92708 59.875 10.1875C59.7448 10.4479 59.6484 10.7708 59.5859 11.1562C59.5286 11.5417 59.5 12.0026 59.5 12.5391C59.5 13.0703 59.5286 13.526 59.5859 13.9062C59.6484 14.2812 59.7448 14.5964 59.875 14.8516C60.0052 15.1068 60.1719 15.3125 60.375 15.4688C60.5833 15.6198 60.8359 15.7344 61.1328 15.8125C61.4297 15.8906 61.7734 15.9427 62.1641 15.9688C62.5547 15.9896 63 16 63.5 16ZM70.5 12.4375C70.5 11.5156 70.599 10.7526 70.7969 10.1484C70.9948 9.54427 71.3125 9.0651 71.75 8.71094C72.1875 8.35677 72.7552 8.10938 73.4531 7.96875C74.151 7.82292 75 7.75 76 7.75C77 7.75 77.849 7.82292 78.5469 7.96875C79.2448 8.10938 79.8125 8.35677 80.25 8.71094C80.6875 9.0651 81.0052 9.54427 81.2031 10.1484C81.401 10.7526 81.5 11.5156 81.5 12.4375C81.5 13.3594 81.401 14.125 81.2031 14.7344C81.0052 15.3438 80.6875 15.8281 80.25 16.1875C79.8125 16.5469 79.2448 16.8021 78.5469 16.9531C77.849 17.099 77 17.1719 76 17.1719C75 17.1719 74.151 17.099 73.4531 16.9531C72.7552 16.8021 72.1875 16.5469 71.75 16.1875C71.3125 15.8281 70.9948 15.3438 70.7969 14.7344C70.599 14.125 70.5 13.3594 70.5 12.4375ZM72 12.4375C72 12.9375 72.0182 13.3724 72.0547 13.7422C72.0911 14.112 72.1589 14.4297 72.2578 14.6953C72.362 14.9609 72.5052 15.1771 72.6875 15.3438C72.8698 15.5104 73.1094 15.6432 73.4062 15.7422C73.7031 15.8411 74.0625 15.9089 74.4844 15.9453C74.9115 15.9818 75.4167 16 76 16C76.5 16 76.9453 15.9896 77.3359 15.9688C77.7318 15.9427 78.0755 15.888 78.3672 15.8047C78.6641 15.7214 78.9167 15.6042 79.125 15.4531C79.3333 15.2969 79.5 15.0859 79.625 14.8203C79.7552 14.5547 79.849 14.2292 79.9062 13.8438C79.9688 13.4531 80 12.9844 80 12.4375C80 11.901 79.9688 11.4453 79.9062 11.0703C79.849 10.6901 79.7552 10.3724 79.625 10.1172C79.5 9.86198 79.3333 9.66146 79.125 9.51562C78.9167 9.36458 78.6641 9.2526 78.3672 9.17969C78.0755 9.10156 77.7318 9.05208 77.3359 9.03125C76.9453 9.01042 76.5 9 76 9C75.5 9 75.0521 9.01042 74.6562 9.03125C74.2656 9.05208 73.9219 9.10156 73.625 9.17969C73.3333 9.2526 73.0833 9.36458 72.875 9.51562C72.6667 9.66146 72.4974 9.86198 72.3672 10.1172C72.2422 10.3724 72.1484 10.6901 72.0859 11.0703C72.0286 11.4453 72 11.901 72 12.4375ZM84.7578 8V13C84.7578 13.5573 84.7995 14.0286 84.8828 14.4141C84.9661 14.7943 85.1328 15.1016 85.3828 15.3359C85.6328 15.5703 85.987 15.7396 86.4453 15.8438C86.9036 15.9479 87.5078 16 88.2578 16C89.0703 16 89.7344 15.9401 90.25 15.8203C90.7708 15.7005 91.1797 15.5312 91.4766 15.3125C91.7734 15.0938 91.9766 14.8307 92.0859 14.5234C92.2005 14.2161 92.2578 13.875 92.2578 13.5V8H93.7578V17H92.2578V15.5C92.1849 15.6615 92.0625 15.8411 91.8906 16.0391C91.7188 16.2318 91.4609 16.4115 91.1172 16.5781C90.7734 16.7448 90.3281 16.8854 89.7812 17C89.2396 17.1146 88.5651 17.1719 87.7578 17.1719C87.0859 17.1719 86.5078 17.1302 86.0234 17.0469C85.5443 16.9688 85.1354 16.8516 84.7969 16.6953C84.4635 16.5339 84.1953 16.3359 83.9922 16.1016C83.7891 15.8672 83.6328 15.5964 83.5234 15.2891C83.4141 14.9766 83.3411 14.6302 83.3047 14.25C83.2682 13.8698 83.25 13.4531 83.25 13L83.2578 8H84.7578ZM104.516 13C104.516 13.7656 104.453 14.4062 104.328 14.9219C104.203 15.4323 103.992 15.8411 103.695 16.1484C103.404 16.4557 103.018 16.6745 102.539 16.8047C102.06 16.9349 101.469 17 100.766 17C100.083 17 99.5104 16.9479 99.0469 16.8438C98.5833 16.7396 98.2083 16.5625 97.9219 16.3125C97.6354 16.0625 97.4297 15.7292 97.3047 15.3125C97.1797 14.8958 97.1172 14.375 97.1172 13.75V9.23438H95.2656V8H97.1172V5.53906H98.6172V8H104.266V9.23438H98.6172V13.75C98.6172 14.25 98.6536 14.6354 98.7266 14.9062C98.8047 15.1771 98.9271 15.375 99.0938 15.5C99.2604 15.625 99.4792 15.6979 99.75 15.7188C100.026 15.7396 100.362 15.75 100.758 15.75C101.07 15.75 101.349 15.7448 101.594 15.7344C101.844 15.724 102.06 15.6927 102.242 15.6406C102.43 15.5833 102.589 15.5 102.719 15.3906C102.849 15.276 102.953 15.1172 103.031 14.9141C103.115 14.7109 103.174 14.4557 103.211 14.1484C103.247 13.8359 103.266 13.4531 103.266 13H104.516Z" fill="#56585E"/>
</svg>
