<svg width="228" height="200" viewBox="0 0 228 200" fill="none" xmlns="http://www.w3.org/2000/svg">
<path d="M198.613 146.264L195.316 197.401C195.242 197.922 194.803 198.368 194.29 198.368C193.703 198.368 193.264 197.922 193.264 197.326C193.264 197.326 193.264 197.326 193.264 197.252L194.656 146.189H198.613V146.264Z" fill="#2E3038" stroke="#2E3038" stroke-linecap="round" stroke-linejoin="round"/>
<path d="M207.188 146.264L210.485 197.401C210.485 197.922 210.925 198.368 211.511 198.368C212.098 198.368 212.537 197.922 212.537 197.326L211.145 146.338L207.188 146.264Z" fill="#2E3038" stroke="#2E3038" stroke-linecap="round" stroke-linejoin="round"/>
<path d="M173.768 146.264L177.065 197.401C177.065 197.922 177.505 198.368 178.091 198.368C178.678 198.368 179.117 197.922 179.117 197.326L177.725 146.338L173.768 146.264Z" fill="#2E3038" stroke="#2E3038" stroke-linecap="round" stroke-linejoin="round"/>
<path d="M160.137 146.264L156.839 197.401C156.766 197.922 156.326 198.368 155.813 198.368C155.227 198.368 154.787 197.922 154.787 197.326L156.179 146.338L160.137 146.264Z" fill="#2E3038" stroke="#2E3038" stroke-linecap="round" stroke-linejoin="round"/>
<path d="M218.181 94.6809C218.181 94.6809 184.908 93.4155 182.123 93.4155C179.338 93.4155 178.678 94.6809 178.678 94.6809L173.915 128.697C173.915 128.697 159.183 124.381 156.252 124.976C153.32 125.571 157.717 146.86 157.717 146.86H174.428L174.721 145.594H212.465L222.505 97.1375C221.845 94.9042 218.181 94.6809 218.181 94.6809Z" fill="white" stroke="#2E3038" stroke-linecap="round" stroke-linejoin="round"/>
<path d="M205.575 115.969C205.575 115.969 208.947 138.3 205.062 140.905C204.476 141.277 201.178 143.212 198.173 142.914C195.755 142.691 178.459 142.914 178.459 142.914C178.459 142.914 176.04 138.3 175.6 134.876C175.161 131.452 178.899 116.788 178.899 116.788L205.575 115.969Z" fill="white" stroke="#2E3038" stroke-linecap="round" stroke-linejoin="round"/>
<path d="M177.214 127.879C177.214 127.879 152.149 130.485 150.975 131.229C149.803 131.973 144.38 136.737 145.332 139.863C146.285 142.989 143.94 143.213 146.065 143.734C148.191 144.255 178.679 144.18 178.679 144.18" fill="#184AFB"/>
<path d="M177.214 127.879C177.214 127.879 152.149 130.485 150.975 131.229C149.803 131.973 144.38 136.737 145.332 139.863C146.285 142.989 143.94 143.213 146.065 143.734C148.191 144.255 178.679 144.18 178.679 144.18" stroke="#2E3038" stroke-linecap="round" stroke-linejoin="round"/>
<path d="M213.93 142.319H154.42V146.86H213.93V142.319Z" fill="white" stroke="#2E3038" stroke-linecap="round" stroke-linejoin="round"/>
<path d="M199.859 128.846H164.021C164.021 128.846 162.116 131.005 161.895 135.545C161.675 140.086 162.116 141.054 165.413 142.244C168.711 143.436 198.1 142.84 198.1 142.84" fill="#184AFB"/>
<path d="M199.859 128.846H164.021C164.021 128.846 162.116 131.005 161.895 135.545C161.675 140.086 162.116 141.054 165.413 142.244C168.711 143.436 198.1 142.84 198.1 142.84" stroke="#2E3038" stroke-linecap="round" stroke-linejoin="round"/>
<path d="M171.642 186.608L167.904 177.601L161.748 178.792L166.439 186.831L163.727 192.34L157.864 196.21C157.864 196.21 157.204 196.88 160.137 196.657C163.068 196.433 169.15 196.657 169.15 196.657L172.962 192.115C172.962 192.115 174.354 189.809 171.642 186.608Z" fill="white" stroke="#2E3038" stroke-linecap="round" stroke-linejoin="round"/>
<path d="M173.33 190.553L173.476 196.434H172.523L171.277 193.531L173.33 190.553Z" fill="#2E3038" stroke="#2E3038" stroke-linecap="round" stroke-linejoin="round"/>
<path d="M169.151 196.731L172.963 192.19C172.963 192.19 173.989 190.479 172.596 188.022C169.884 192.785 166.22 194.2 166.22 194.2L162.409 193.307L157.792 196.359C157.792 196.359 157.133 197.029 160.064 196.806C162.995 196.582 169.151 196.731 169.151 196.731Z" fill="#2E3038" stroke="#2E3038" stroke-linecap="round" stroke-linejoin="round"/>
<path d="M156.912 140.607L169.445 179.238L160.503 180.877L142.914 140.681C142.914 140.681 141.521 134.653 145.259 132.791C148.997 130.93 160.136 129.888 160.136 129.888" fill="#184AFB"/>
<path d="M156.912 140.607L169.445 179.238L160.503 180.877L142.914 140.681C142.914 140.681 141.521 134.653 145.259 132.791C148.997 130.93 160.136 129.888 160.136 129.888" stroke="#2E3038" stroke-linecap="round" stroke-linejoin="round"/>
<path d="M197.22 146.786C197.22 146.786 192.896 125.422 195.754 124.902C198.612 124.381 213.417 128.623 213.417 128.623L218.18 94.6811C218.18 94.6811 223.164 93.8622 223.75 98.4029C224.264 102.943 213.93 146.786 213.93 146.786H197.22Z" fill="#2E3038" stroke="#2E3038" stroke-linecap="round" stroke-linejoin="round"/>
<path d="M146.212 83.8879L144.013 80.166C143.573 79.4217 142.768 78.9751 141.961 79.0496L139.836 79.124L136.245 78.0075C135.805 77.8586 135.292 78.0075 134.999 78.4541L134.852 78.603L138.15 80.0916L134.852 81.357L131.335 79.5706C131.041 79.4217 130.675 79.4961 130.528 79.7939C130.309 80.0916 130.381 80.5382 130.675 80.7615L135.585 84.6322C135.878 84.8555 136.318 85.0043 136.684 84.9299L142.108 83.8133L143.647 85.5254L146.212 83.8879Z" fill="white" stroke="#2E3038" stroke-linecap="round" stroke-linejoin="round"/>
<path d="M184.102 76.2212L163.947 97.6587L144.746 81.8782L142.107 83.8136L163.215 108.154L181.538 98.1048L184.102 76.2212Z" fill="white" stroke="#2E3038" stroke-linecap="round" stroke-linejoin="round"/>
<path d="M214.224 81.729L224.777 114.629L215.69 114.927L206.602 99.4449C206.602 99.4449 211.732 83.8877 214.224 81.729Z" fill="white" stroke="#2E3038" stroke-linecap="round" stroke-linejoin="round"/>
<path d="M202.717 76.0724L214.222 81.7294L204.622 109.047L205.722 116.639L178.824 116.714L182.049 104.432L179.85 96.5424C179.557 95.4999 179.557 94.4578 179.777 93.4156L184.101 76.2212L195.387 74.3604L202.717 76.0724Z" fill="white" stroke="#2E3038" stroke-linecap="round" stroke-linejoin="round"/>
<path d="M202.204 74.4347C202.204 74.4347 204.476 75.9978 204.549 77.3377C204.549 78.1565 204.549 79.5707 204.476 80.6872C204.402 81.5061 204.256 82.3993 203.889 83.1436L199.859 88.1307L195.168 84.3345L191.284 86.3443C191.284 86.3443 190.551 80.2406 192.236 75.9978C193.922 71.7551 201.325 73.3926 202.204 74.4347Z" fill="white" stroke="#2E3038" stroke-linecap="round" stroke-linejoin="round"/>
<path d="M205.428 62.6738C205.428 62.6738 204.476 66.0235 204.036 68.2565C203.596 70.4895 202.717 74.9556 202.79 76.5932C202.863 78.2308 195.9 85.3764 195.095 84.3344C194.289 83.2923 193.336 77.1142 193.336 77.1142L194.215 67.14C194.141 67.14 203.23 56.9424 205.428 62.6738Z" fill="white" stroke="#2E3038" stroke-linecap="round" stroke-linejoin="round"/>
<path d="M190.917 57.4636C190.917 57.4636 189.672 59.5477 189.672 60.441C189.672 61.3341 190.112 63.1206 190.038 63.6416C189.965 64.1627 188.719 65.8747 188.573 66.4702C188.426 66.9911 188.646 67.5122 189.086 67.7356C189.379 67.8844 189.672 68.0333 189.965 68.2565C189.965 68.2565 190.332 72.8715 190.917 74.0625C191.504 75.2535 192.017 75.7745 193.776 75.9234C195.535 76.0722 199.639 74.2113 200.226 72.7227C200.812 71.2339 200.885 69.4475 200.958 67.3634C201.032 65.2792 199.566 62.153 198.467 59.25C197.367 56.347 192.824 54.5606 190.917 57.4636Z" fill="white" stroke="#2E3038" stroke-linecap="round" stroke-linejoin="round"/>
<path d="M209.68 72.5738C212.755 72.5738 215.249 70.0411 215.249 66.9168C215.249 63.7926 212.755 61.2598 209.68 61.2598C206.603 61.2598 204.109 63.7926 204.109 66.9168C204.109 70.0411 206.603 72.5738 209.68 72.5738Z" fill="#2E3038" stroke="#2E3038" stroke-linecap="round" stroke-linejoin="round"/>
<path d="M190.844 57.1658C190.844 57.1658 193.116 55.2306 197.146 59.1011C201.177 62.9717 199.638 68.7032 202.349 69.8941C205.061 71.0851 210.045 65.2048 210.631 62.2274C211.218 59.25 209.459 53.2207 204.036 52.0298C198.612 50.8388 192.09 51.6577 190.844 57.1658Z" fill="#2E3038" stroke="#2E3038" stroke-linecap="round" stroke-linejoin="round"/>
<path d="M190.844 57.1659C190.697 55.454 191.87 53.9653 193.483 53.8164C193.702 53.8164 193.996 53.8164 194.215 53.8164C197.88 54.0397 198.246 59.9201 200.152 62.2276C202.057 64.535 203.083 64.1628 203.083 64.1628C203.083 64.1628 199.786 65.1304 197.66 63.9395C195.535 62.7485 194.581 56.1239 190.844 57.1659Z" fill="#2E3038" stroke="#2E3038" stroke-linecap="round" stroke-linejoin="round"/>
<path d="M199.345 67.6611C199.345 67.6611 203.23 62.525 204.109 66.3212C204.989 70.1174 201.911 71.085 200.445 70.6385C198.979 70.1918 199.199 69.373 199.199 69.373" fill="white"/>
<path d="M199.345 67.6611C199.345 67.6611 203.23 62.525 204.109 66.3212C204.989 70.1174 201.911 71.085 200.445 70.6385C198.979 70.1918 199.199 69.373 199.199 69.373" stroke="#2E3038" stroke-linecap="round" stroke-linejoin="round"/>
<path d="M190.699 111.727C190.699 111.727 183.296 112.768 182.05 112.768C180.804 112.768 177.727 116.714 177.727 116.714H191.285L190.699 111.727Z" fill="white" stroke="#2E3038" stroke-linecap="round" stroke-linejoin="round"/>
<path d="M222.138 106.665L224.777 112.768C225.216 114.033 224.557 115.374 223.311 115.82C223.09 115.895 222.87 115.969 222.578 115.969L190.551 116.118L190.771 111.727L215.615 107.706" fill="white"/>
<path d="M222.138 106.665L224.777 112.768C225.216 114.033 224.557 115.374 223.311 115.82C223.09 115.895 222.87 115.969 222.578 115.969L190.551 116.118L190.771 111.727L215.615 107.706" stroke="#2E3038" stroke-linecap="round" stroke-linejoin="round"/>
<path d="M179.264 190.553L179.411 196.434H178.458L177.285 193.531L179.264 190.553Z" fill="#2E3038" stroke="#2E3038" stroke-linecap="round" stroke-linejoin="round"/>
<path d="M177.58 186.607L176.407 178.048L170.251 178.42L172.376 186.906L169.665 192.413L163.802 196.284C163.802 196.284 163.142 196.954 166.073 196.731C169.005 196.507 175.088 196.731 175.088 196.731L178.899 192.19C178.972 192.19 180.291 189.808 177.58 186.607Z" fill="white" stroke="#2E3038" stroke-linecap="round" stroke-linejoin="round"/>
<path d="M175.088 196.731L178.899 192.19C178.899 192.19 179.925 190.479 178.532 188.022C175.821 192.785 172.157 194.2 172.157 194.2L168.419 193.307L163.802 196.359C163.802 196.359 163.142 197.029 166.073 196.806C169.005 196.582 175.088 196.731 175.088 196.731Z" fill="#2E3038" stroke="#2E3038" stroke-linecap="round" stroke-linejoin="round"/>
<path d="M174.794 133.982L177.432 179.611L169.077 179.834L160.941 138.374C160.941 138.374 161.089 130.484 163.58 129.591C166.072 128.698 172.668 129.665 172.668 129.665" fill="#184AFB"/>
<path d="M174.794 133.982L177.432 179.611L169.077 179.834L160.941 138.374C160.941 138.374 161.089 130.484 163.58 129.591C166.072 128.698 172.668 129.665 172.668 129.665" stroke="#2E3038" stroke-linecap="round" stroke-linejoin="round"/>
<path d="M138.369 35.7285L148.703 65.2047C148.703 65.2047 147.31 71.8294 143.206 71.6061C139.102 71.3827 138.003 65.5025 136.903 64.6836C135.804 63.8649 134.191 57.4635 134.191 57.4635L138.369 35.7285Z" fill="white" stroke="#2E3038" stroke-linecap="round" stroke-linejoin="round"/>
<path d="M111.619 29.8481L94.8359 35.9518L101.285 83.2923H131.554L138.369 35.7285L120.194 29.9227L111.619 29.8481Z" fill="white" stroke="#2E3038" stroke-linecap="round" stroke-linejoin="round"/>
<path d="M113.232 37.9616L115.651 41.6089L113.526 73.1693L116.677 81.357L119.828 73.3925L117.116 42.1299L119.315 36.7707L116.237 32.6768L113.232 37.9616Z" fill="#184AFB" stroke="#2E3038" stroke-linecap="round" stroke-linejoin="round"/>
<path d="M116.602 36.3983L112.278 39.6734L109.42 31.1134L111.399 26.7218L120.266 26.4985L122.392 28.5082L121.952 39.4502L116.602 36.3983Z" fill="white" stroke="#2E3038" stroke-linecap="round" stroke-linejoin="round"/>
<path d="M121.147 24.4889L120.487 29.997L115.651 36.324L111.986 29.8481V19.5762C111.986 19.5762 118.362 21.2137 121.147 24.4889Z" fill="white" stroke="#2E3038" stroke-linecap="round" stroke-linejoin="round"/>
<path d="M109.494 13.0259C109.494 7.96431 113.085 3.94482 117.555 3.94482C122.026 3.94482 124.518 8.26204 124.518 13.2492C124.518 14.8868 124.152 17.6408 124.078 19.1296C123.859 21.6603 123.126 22.7023 121.587 25.0098C116.749 32.4533 112.791 21.5114 110.74 17.8642C109.934 16.3754 109.494 14.7378 109.494 13.0259Z" fill="white" stroke="#2E3038" stroke-linecap="round" stroke-linejoin="round"/>
<path d="M121.074 14.5889L121.807 19.7993L119.389 19.7248" fill="white"/>
<path d="M121.074 14.5889L121.807 19.7993L119.389 19.7248" stroke="#2E3038" stroke-linecap="round" stroke-linejoin="round"/>
<path d="M126.423 13.6958L114.917 13.7702C114.623 14.6634 114.843 15.7055 115.503 16.4498C116.236 17.1942 119.241 16.8965 119.681 16.7476C120.12 16.5987 120.413 14.4401 120.413 14.4401H121.292C121.292 14.4401 121.366 16.6731 122.612 16.8221C123.858 16.9709 125.47 16.9709 125.763 16.7476C127.083 15.7799 126.423 13.6958 126.423 13.6958Z" fill="white" stroke="#2E3038" stroke-linecap="round" stroke-linejoin="round"/>
<path d="M110.96 18.683C110.96 18.683 113.524 24.0423 114.184 25.9776C114.844 27.9129 117.849 29.3271 120.926 28.285C124.005 27.243 123.198 22.628 123.198 22.628C123.198 22.628 119.901 19.7995 119.314 20.395C118.728 20.9905 115.43 23.7445 115.21 23.0746C114.99 22.4047 113.598 18.683 113.598 18.683L112.938 16.0033L114.33 15.1101C114.77 14.7379 114.844 14.1424 114.477 13.6959L113.817 12.7282C113.671 12.5049 113.598 12.2071 113.671 11.9094C113.817 11.0906 114.33 9.37862 115.357 8.93201C116.822 8.33653 118.581 9.22974 120.267 9.60192C121.952 9.97413 123.711 8.4854 123.711 8.4854L124.444 10.9417C126.057 9.37862 127.229 7.36888 127.742 5.21027C128.549 1.63741 120.193 0.223145 117.482 0.223145C114.77 0.223145 110.519 1.71184 109.273 5.65688C108.027 9.60192 110.226 18.0131 110.96 18.683Z" fill="#2E3038" stroke="#2E3038" stroke-linecap="round" stroke-linejoin="round"/>
<path d="M111.327 17.0453C111.327 17.0453 109.055 14.5146 109.055 17.2686C109.055 20.0227 109.714 20.0227 111.106 20.9903C112.499 21.958 112.939 20.7671 112.939 20.7671" fill="white"/>
<path d="M111.327 17.0453C111.327 17.0453 109.055 14.5146 109.055 17.2686C109.055 20.0227 109.714 20.0227 111.106 20.9903C112.499 21.958 112.939 20.7671 112.939 20.7671" stroke="#2E3038" stroke-linecap="round" stroke-linejoin="round"/>
<path d="M141.593 188.617H141.667L141.447 187.575L131.553 83.3667H101.211L91.2441 188.692H91.3174L97.767 189.287C97.767 189.287 104.876 164.947 104.876 163.161C104.876 161.374 106.928 144.552 106.928 144.552L117.042 108.451L126.056 144.403C126.056 144.403 128.108 161.225 128.108 163.012C128.108 164.798 135.291 189.212 135.291 189.212L141.373 188.692L141.593 188.617Z" fill="#2E3038" stroke="#2E3038" stroke-linecap="round" stroke-linejoin="round"/>
<path d="M91.3907 188.617C91.3907 188.617 87.5065 191.669 85.3078 192.562C83.1091 193.456 78.9316 195.688 78.9316 195.688C78.9316 195.688 78.9316 197.103 82.5229 197.103H96.6672L96.4474 188.617H91.3907Z" fill="#2E3038" stroke="#2E3038" stroke-linecap="round" stroke-linejoin="round"/>
<path d="M96.6672 195.54C91.0243 195.837 85.3077 195.688 79.6646 195.242L78.9316 195.614C78.9316 195.614 78.9316 197.029 82.5229 197.029H96.7408L96.6672 195.54Z" fill="white" stroke="#2E3038" stroke-linecap="round" stroke-linejoin="round"/>
<path d="M141.008 188.617C141.008 188.617 144.891 191.669 147.09 192.562C149.289 193.456 153.467 195.688 153.467 195.688C153.467 195.688 153.467 197.103 149.875 197.103H135.73L136.024 188.617H141.008Z" fill="#2E3038" stroke="#2E3038" stroke-linecap="round" stroke-linejoin="round"/>
<path d="M135.73 195.54C141.373 195.837 147.09 195.688 152.734 195.242L153.467 195.614C153.467 195.614 153.467 197.029 149.875 197.029H135.73V195.54Z" fill="white" stroke="#2E3038" stroke-linecap="round" stroke-linejoin="round"/>
<path d="M94.8362 35.9521L83.623 66.2471H94.3232L98.3544 57.9848L94.8362 35.9521Z" fill="white" stroke="#2E3038" stroke-linecap="round" stroke-linejoin="round"/>
<path d="M143.646 61.5572C139.175 59.6964 124.81 58.7288 124.078 58.7288C123.345 58.7288 100.039 56.7934 98.1339 56.4957C96.2277 56.1979 94.0293 60.6641 94.0293 60.6641L104.143 60.3663L116.456 62.897C116.456 62.897 141.373 72.0525 143.28 71.5315C143.499 71.457 143.793 71.3082 143.939 71.0849" fill="white"/>
<path d="M143.646 61.5572C139.175 59.6964 124.81 58.7288 124.078 58.7288C123.345 58.7288 100.039 56.7934 98.1339 56.4957C96.2277 56.1979 94.0293 60.6641 94.0293 60.6641L104.143 60.3663L116.456 62.897C116.456 62.897 141.373 72.0525 143.28 71.5315C143.499 71.457 143.793 71.3082 143.939 71.0849" stroke="#2E3038" stroke-linecap="round" stroke-linejoin="round"/>
<path d="M91.5382 60.1431L130.088 56.2725L130.381 59.6221L97.0349 69.8941C97.0349 69.8941 91.0251 71.3083 86.3346 70.4151C81.6442 69.5219 83.8428 64.8325 84.9422 62.0784" fill="white"/>
<path d="M91.5382 60.1431L130.088 56.2725L130.381 59.6221L97.0349 69.8941C97.0349 69.8941 91.0251 71.3083 86.3346 70.4151C81.6442 69.5219 83.8428 64.8325 84.9422 62.0784" stroke="#2E3038" stroke-linecap="round" stroke-linejoin="round"/>
<path d="M130.088 56.2724L137.49 55.9746L139.688 60.4408L130.381 59.6219L130.088 56.2724Z" fill="white" stroke="#2E3038" stroke-linecap="round" stroke-linejoin="round"/>
<path d="M179.266 121.552L185.568 197.699C185.641 198.145 186.081 198.443 186.52 198.443C186.52 198.443 186.52 198.443 186.594 198.443C186.961 198.368 187.253 197.996 187.181 197.55L182.856 121.626L179.266 121.552Z" fill="#2E3038" stroke="#2E3038" stroke-linecap="round" stroke-linejoin="round"/>
<path d="M221.553 121.552L227.929 197.996C228.002 198.443 228.442 198.74 228.881 198.74H228.955C229.322 198.666 229.614 198.294 229.541 197.847L225.217 121.626L221.553 121.552Z" fill="#2E3038" stroke="#2E3038" stroke-linecap="round" stroke-linejoin="round"/>
<path d="M46.9792 121.552L43.6812 197.029C43.6079 197.401 43.9011 197.847 44.2676 197.922C44.7073 197.996 45.147 197.773 45.2203 197.327C45.2203 197.327 45.2203 197.252 45.2203 197.178L50.5704 121.552H46.9792Z" fill="#2E3038" stroke="#2E3038" stroke-linecap="round" stroke-linejoin="round"/>
<path d="M7.98939 121.552L4.69141 196.731C4.69141 197.178 4.91127 197.55 5.351 197.624C5.79074 197.699 6.23047 197.475 6.30375 197.029V196.955L11.5805 121.552H7.98939Z" fill="#2E3038" stroke="#2E3038" stroke-linecap="round" stroke-linejoin="round"/>
<path d="M229.834 117.384H5.64453V123.934H229.834V117.384Z" fill="#184AFB" stroke="#2E3038" stroke-linecap="round" stroke-linejoin="round"/>
<path d="M229.834 117.384H5.64453V119.616H229.834V117.384Z" fill="#2E3038" stroke="#2E3038" stroke-linecap="round" stroke-linejoin="round"/>
<path d="M229.761 117.384H173.695V123.934H229.761V117.384Z" fill="#2E3038" stroke="#2E3038" stroke-linecap="round" stroke-linejoin="round"/>
<path d="M231.814 115.225H3.66602V117.756H231.814V115.225Z" fill="#184AFB" stroke="#2E3038" stroke-linecap="round" stroke-linejoin="round"/>
<path d="M231.813 115.225H176.041V117.756H231.813V115.225Z" fill="#2E3038" stroke="#2E3038" stroke-linecap="round" stroke-linejoin="round"/>
<path d="M54.4542 114.927H85.0889C85.3087 114.927 85.5286 114.778 85.6751 114.554L94.1767 94.9039C94.3232 94.6062 94.1767 94.234 93.8835 94.0852C93.8102 94.0852 93.7369 94.0107 93.6636 94.0107H62.9557C62.7358 94.0107 62.516 94.1596 62.4427 94.3829L54.0145 114.033C53.868 114.331 54.0145 114.704 54.3077 114.853C54.3077 114.927 54.381 114.927 54.4542 114.927Z" fill="white" stroke="#2E3038" stroke-linecap="round" stroke-linejoin="round"/>
<path d="M57.3136 113.438H83.4043C83.6242 113.438 83.7707 113.289 83.844 113.14L91.0996 96.3931C91.2462 96.169 91.0996 95.7973 90.8798 95.7229C90.8065 95.6484 90.7332 95.6484 90.6598 95.6484H64.5691C64.3493 95.6484 64.2027 95.7973 64.1294 95.9462L56.8739 112.694C56.7273 112.917 56.8739 113.289 57.167 113.364C57.2403 113.438 57.2403 113.438 57.3136 113.438Z" fill="#184AFB" stroke="#2E3038" stroke-linecap="round" stroke-linejoin="round"/>
<path d="M85.5291 113.662H39.5039V115.15H85.5291V113.662Z" fill="white" stroke="#2E3038" stroke-linecap="round" stroke-linejoin="round"/>
<path d="M85.5297 113.662H63.25V115.15H85.5297V113.662Z" fill="white" stroke="#2E3038" stroke-linecap="round" stroke-linejoin="round"/>
<path d="M100.332 103.017H92.1973V115.225H100.332V103.017Z" fill="white" stroke="#2E3038" stroke-linecap="round" stroke-linejoin="round"/>
<path d="M99.966 113.587H99.087C98.7201 113.587 98.4268 113.289 98.4268 112.917C98.4268 112.545 98.7201 112.247 99.087 112.247H99.966C100.699 112.247 101.212 111.652 101.212 110.982V108.005C101.212 107.26 100.625 106.739 99.966 106.739H98.8673C98.5004 106.739 98.207 106.441 98.207 106.069C98.207 105.697 98.5004 105.399 98.8673 105.399H99.966C101.432 105.399 102.531 106.59 102.531 108.005V110.982C102.531 112.396 101.358 113.587 99.966 113.587Z" fill="white" stroke="#2E3038" stroke-linecap="round" stroke-linejoin="round"/>
<path d="M163.654 114.927H133.019C132.8 114.927 132.58 114.778 132.506 114.554L124.005 94.9039C123.858 94.6062 124.005 94.234 124.298 94.0852C124.372 94.0852 124.445 94.0107 124.518 94.0107H155.153C155.373 94.0107 155.592 94.1596 155.738 94.3829L164.24 114.033C164.387 114.331 164.24 114.704 163.947 114.853C163.874 114.927 163.727 114.927 163.654 114.927Z" fill="white" stroke="#2E3038" stroke-linecap="round" stroke-linejoin="round"/>
<path d="M178.678 113.662H132.652V115.15H178.678V113.662Z" fill="white" stroke="#2E3038" stroke-linecap="round" stroke-linejoin="round"/>
<path d="M164.387 113.662H132.652V115.15H164.387V113.662Z" fill="white" stroke="#2E3038" stroke-linecap="round" stroke-linejoin="round"/>
<path d="M144.672 102.273C145.111 103.166 144.818 104.283 143.939 104.73C143.06 105.176 141.96 104.879 141.521 103.985C141.08 103.092 141.374 102.05 142.254 101.529C143.06 101.008 144.159 101.38 144.672 102.273Z" fill="white" stroke="#2E3038" stroke-linecap="round" stroke-linejoin="round"/>
<path d="M13.9992 97.3604C13.9992 97.3604 16.2712 102.199 16.4911 103.464C16.7109 104.73 17.0041 107.334 16.0513 108.526C14.8787 109.94 13.7794 108.824 13.7794 108.824C13.7794 108.824 10.7745 108.079 10.7745 105.474C10.7745 102.869 10.5547 99.37 10.5547 99.37L13.9992 97.3604Z" fill="white" stroke="#2E3038" stroke-linecap="round" stroke-linejoin="round"/>
<path d="M11.5078 104.953L15.7585 106.069" stroke="#2E3038" stroke-linecap="round" stroke-linejoin="round"/>
<path d="M12.5338 102.05L13.7064 103.986C13.7064 103.986 10.9214 108.824 12.3872 107.559C13.853 106.293 16.7112 104.73 16.4181 103.464C15.9783 102.125 15.4653 100.86 14.7324 99.5942" fill="white"/>
<path d="M12.5338 102.05L13.7064 103.986C13.7064 103.986 10.9214 108.824 12.3872 107.559C13.853 106.293 16.7112 104.73 16.4181 103.464C15.9783 102.125 15.4653 100.86 14.7324 99.5942" stroke="#2E3038" stroke-linecap="round" stroke-linejoin="round"/>
<path d="M55.187 51.5088C55.187 51.5088 57.0193 57.3147 57.0193 58.4312C57.0193 59.25 56.9459 60.0688 56.8726 60.8875L58.485 63.4183C58.7049 63.7905 58.5583 64.1627 58.2651 64.386L55.7734 65.8747C55.7734 65.8747 55.407 71.8295 55.0404 72.5738C54.674 73.3181 48.4445 73.1693 48.4445 73.1693L46.3924 77.1144L35.9121 72.946L38.6971 65.2792L38.1108 53.7419C38.1108 53.7419 44.5602 47.9359 55.187 51.5088Z" fill="white" stroke="#2E3038" stroke-linecap="round" stroke-linejoin="round"/>
<path d="M48.0043 65.5765C48.0043 65.5765 46.1721 67.2885 44.7796 67.4374C43.3871 67.5862 38.9898 66.5442 38.6234 66.0231C38.2569 65.5021 35.1788 59.0262 35.3254 55.9C35.4719 52.7737 35.5452 48.1588 38.8432 46.5956C42.1412 45.0326 47.418 45.5536 50.1297 43.8416C52.8414 42.1296 57.2387 40.7153 59.5106 43.6926C61.7825 46.6701 60.0969 50.9128 58.2647 52.6249C56.4325 54.3369 54.1606 54.8579 54.3804 55.6023C54.6003 56.3466 55.9928 57.2399 55.1865 58.3563C54.3804 59.4728 51.5222 60.5894 51.5222 61.036C51.5222 61.4825 52.1818 63.1201 51.4489 63.3434C50.716 63.5668 49.8365 61.7803 49.0304 61.7803C48.2242 61.7803 46.5385 64.0878 48.0043 65.5765Z" fill="#2E3038" stroke="#2E3038" stroke-linecap="round" stroke-linejoin="round"/>
<path d="M47.8594 65.8745L49.3252 66.2466C49.1786 67.6609 49.545 69.0752 50.4244 70.1916" fill="white"/>
<path d="M47.8594 65.8745L49.3252 66.2466C49.1786 67.6609 49.545 69.0752 50.4244 70.1916" stroke="#2E3038" stroke-linecap="round" stroke-linejoin="round"/>
<path d="M49.5449 61.8552L59.8787 59.25" stroke="#2E3038" stroke-linecap="round" stroke-linejoin="round"/>
<path d="M57.2383 59.0269L59.5836 59.1014C59.5836 59.1014 60.3897 61.781 57.9712 62.1532" stroke="#2E3038" stroke-linecap="round" stroke-linejoin="round"/>
<path d="M46.8315 187.724C46.8315 187.724 56.3591 193.828 58.0447 193.828C59.7303 193.828 60.5365 195.391 59.7303 195.54C58.9241 195.688 53.7206 195.912 50.2028 196.061C46.685 196.21 44.3397 195.912 42.3609 195.912C40.3822 195.912 38.0369 196.061 37.0109 195.54C35.9848 195.019 37.6704 189.212 37.6704 188.245C37.6704 187.278 45.6589 187.055 46.8315 187.724Z" fill="#2E3038" stroke="#2E3038" stroke-linecap="round" stroke-linejoin="round"/>
<path d="M59.0709 194.126C55.3333 195.391 49.3969 194.572 45.7325 194.2C42.8742 193.902 38.4036 193.902 36.5714 193.828C36.4981 194.721 36.5714 195.391 36.8645 195.54C37.8906 196.06 40.2358 195.912 42.2146 195.912C44.1934 195.912 46.5386 196.284 50.0565 196.06C53.5743 195.837 58.7778 195.688 59.5839 195.54C60.3169 195.465 60.0237 194.572 59.0709 194.126Z" fill="white" stroke="#2E3038" stroke-linecap="round" stroke-linejoin="round"/>
<path d="M54.3069 145.743L46.7582 184.077L48.2973 188.022C47.1979 189.66 45.439 190.851 43.5335 191.297C41.4081 191.744 39.2095 191.967 37.0108 191.967C37.0108 191.967 36.2046 187.724 36.7177 187.204C37.2307 186.683 37.3773 184.673 37.3773 184.673L41.7013 146.115L54.3069 145.743Z" fill="#184AFB" stroke="#2E3038" stroke-linecap="round" stroke-linejoin="round"/>
<path d="M77.2465 186.46C77.2465 186.46 83.1096 191.372 85.7479 192.266C88.3864 193.159 91.2446 193.977 91.2446 194.796C91.2446 195.615 84.8685 196.508 80.0315 195.987C75.1944 195.466 67.7922 193.307 66.1799 193.307C64.5675 193.307 64.8607 188.916 64.8607 188.171C64.8607 187.427 73.069 182.067 77.2465 186.46Z" fill="#2E3038" stroke="#2E3038" stroke-linecap="round" stroke-linejoin="round"/>
<path d="M91.3184 194.795C91.3184 194.498 90.9519 194.2 90.3657 193.903C85.6019 194.572 80.6916 194.498 75.9278 193.828C71.0908 193.157 67.0599 192.19 65.0078 191.669C65.1544 192.562 65.5208 193.306 66.1805 193.306C67.8661 193.306 75.1949 195.54 80.0319 195.986C84.869 196.433 91.3184 195.614 91.3184 194.795Z" fill="white" stroke="#2E3038" stroke-linecap="round" stroke-linejoin="round"/>
<path d="M48.1509 128.623C53.1345 128.251 58.1914 128.325 63.175 128.995C71.6765 130.037 90.7315 131.229 91.098 133.386C91.4645 135.545 76.2937 181.546 76.2937 182.737C76.2937 183.928 77.6129 185.119 77.9793 185.789C78.1993 186.235 78.2725 186.756 78.3458 187.352C78.3458 187.352 74.2416 191.818 71.0902 193.009C67.9388 194.2 65.2271 193.083 64.5675 193.083C63.908 193.083 63.908 188.468 64.421 186.31C64.934 184.152 65.7402 178.494 65.96 177.973C66.1799 177.452 75.2677 144.776 75.2677 144.776C75.2677 144.776 50.3495 148.869 35.472 147.157C20.5944 145.445 19.0554 143.063 18.2491 139.49C17.443 135.917 19.0554 128.772 19.0554 128.772L48.1509 128.623Z" fill="#184AFB" stroke="#2E3038" stroke-linecap="round" stroke-linejoin="round"/>
<path d="M46.2458 139.639C45.8793 140.16 45.5129 140.606 45.1465 141.054" stroke="#2E3038" stroke-linecap="round" stroke-linejoin="round"/>
<path d="M50.7902 130.484C49.8374 132.94 48.7381 135.322 47.4922 137.63" stroke="#2E3038" stroke-linecap="round" stroke-linejoin="round"/>
<path d="M48.8112 132.196C46.7591 135.545 43.7542 138.225 40.0898 139.64" stroke="#2E3038" stroke-linecap="round" stroke-linejoin="round"/>
<path d="M86.7754 141.575C87.3617 141.352 87.8747 141.129 88.3877 140.905L86.7754 141.575Z" fill="white"/>
<path d="M86.7754 141.575C87.3617 141.352 87.8747 141.129 88.3877 140.905" stroke="#2E3038" stroke-linecap="round" stroke-linejoin="round"/>
<path d="M75.1953 144.775C78.42 144.18 81.5714 143.361 84.7228 142.319L75.1953 144.775Z" fill="white"/>
<path d="M75.1953 144.775C78.42 144.18 81.5714 143.361 84.7228 142.319" stroke="#2E3038" stroke-linecap="round" stroke-linejoin="round"/>
<path d="M94.5434 88.3541C94.9098 86.9399 95.4962 87.0143 94.9831 86.5678C94.3236 85.8978 93.8106 86.7166 91.9784 87.7586C90.1461 88.8008 88.2406 90.1406 88.2406 90.1406C88.3139 89.7685 88.4604 89.3962 88.6803 89.0985C89.1201 88.2797 89.4132 87.3865 89.4132 86.4933C89.4132 85.7489 88.827 85.8978 88.607 86.6422C88.3872 87.3865 86.2618 88.6519 86.1885 89.2474C86.1153 89.8429 85.6755 92.1504 85.6755 92.1504C85.0159 93.1924 85.0159 97.9567 85.0159 97.9567L71.4575 108.303L64.5684 116.49C64.5684 116.49 67.5732 121.403 69.2588 120.734C70.9445 120.063 71.7507 119.393 75.7815 115.969C79.1529 113.066 87.7276 99.8173 87.7276 99.8173C89.1934 98.849 90.5859 97.8077 91.9051 96.6163C93.4441 94.9044 94.3236 92.6713 94.4701 90.3639C94.3968 89.6195 94.3968 88.9496 94.5434 88.3541Z" fill="white" stroke="#2E3038" stroke-linecap="round" stroke-linejoin="round"/>
<path d="M31.7356 72.5737C31.7356 72.5737 33.0548 67.661 38.4781 68.6287C43.9015 69.5963 48.1522 74.2113 49.105 75.8489C50.0577 77.4864 31.3691 75.1789 31.3691 75.1789L31.7356 72.5737Z" fill="white" stroke="#2E3038" stroke-linecap="round" stroke-linejoin="round"/>
<path d="M63.3213 115.523C63.3213 115.523 62.0754 116.937 63.3213 119.095C64.2008 120.585 65.7398 121.775 68.6714 121.254C71.4563 120.733 75.5606 113.811 75.5606 108.898C75.5606 103.986 72.0426 103.687 70.7235 104.655C69.4043 105.623 63.3213 115.523 63.3213 115.523Z" fill="white" stroke="#2E3038" stroke-linecap="round" stroke-linejoin="round"/>
<path d="M34.0798 72.0526C34.0798 72.0526 21.0343 78.3051 19.2021 79.4961C17.3699 80.6871 16.1973 95.4251 16.1973 98.0308C16.1973 100.636 18.0296 125.571 18.5426 129.814C19.0555 134.057 35.1057 136.96 40.4559 135.396C45.8059 133.834 51.0094 130.038 51.0094 128.623C51.0094 127.209 50.4964 115.746 50.8628 113.513C51.2292 111.28 54.2341 101.975 54.2341 101.975L63.3952 116.788C63.3952 116.788 64.3479 118.574 67.7191 117.16C72.5562 115.15 72.996 107.261 72.996 107.261C72.996 107.261 67.6458 97.7327 66.1068 92.9688C64.5677 88.205 63.9082 84.6322 63.2486 83.8133C62.5889 82.9946 47.4915 75.8488 44.8531 73.9879C41.775 71.5316 37.7442 70.8617 34.0798 72.0526Z" fill="white" stroke="#2E3038" stroke-linecap="round" stroke-linejoin="round"/>
<path d="M54.1619 101.901L49.8379 95.4995" stroke="#2E3038" stroke-linecap="round" stroke-linejoin="round"/>
<path d="M53.4287 101.008L45.8066 97.2114" stroke="#2E3038" stroke-linecap="round" stroke-linejoin="round"/>
<path d="M30.7812 149.763L37.4505 197.996C37.5238 198.443 37.8903 198.74 38.33 198.666H38.4033C38.7697 198.591 39.0628 198.219 38.9896 197.773L34.2991 148.944L30.7812 149.763Z" fill="#2E3038" stroke="#2E3038" stroke-linecap="round" stroke-linejoin="round"/>
<path d="M11.5806 150.135L0.367404 197.55C0.294116 197.996 0.513981 198.443 0.953712 198.517H1.027C1.39344 198.591 1.83318 198.294 1.90646 197.922L14.8786 151.921L11.5806 150.135Z" fill="#2E3038" stroke="#2E3038" stroke-linecap="round" stroke-linejoin="round"/>
<path d="M31.8078 149.539L24.6987 197.699C24.6254 198.145 24.9186 198.592 25.3584 198.666H25.4317C25.7981 198.666 26.1645 198.443 26.2378 197.996L35.2523 151.028L31.8078 149.539Z" fill="#2E3038" stroke="#2E3038" stroke-linecap="round" stroke-linejoin="round"/>
<path d="M57.0195 149.763L63.6888 197.996C63.7621 198.443 64.1285 198.74 64.5682 198.666H64.6416C65.008 198.591 65.3011 198.219 65.2278 197.773L60.4641 148.944L57.0195 149.763Z" fill="#2E3038" stroke="#2E3038" stroke-linecap="round" stroke-linejoin="round"/>
<path d="M0.953125 99.6681L9.08815 153.409H66.9129C66.9129 153.409 67.7923 137.928 65.2272 132.493C62.6621 127.059 31.2213 138.746 30.0487 138.448C29.2425 138.225 30.4884 110.535 32.0275 99.6681C32.4672 96.7652 30.4151 94.0108 27.5569 93.5642C27.337 93.5642 27.0439 93.4897 26.824 93.4897H6.2299C3.29835 93.4897 0.953125 95.8717 0.953125 98.8489C0.953125 99.147 0.953125 99.37 0.953125 99.6681Z" fill="#184AFB" stroke="#2E3038" stroke-linecap="round" stroke-linejoin="round"/>
<path d="M65.3014 132.419C62.7362 126.912 31.2955 138.672 30.1228 138.374C29.3166 138.151 30.5625 110.462 32.1016 99.5933C32.6147 96.7655 30.7824 94.0855 27.9975 93.5645C25.2125 93.0434 22.5741 94.9043 22.0611 97.7328C21.9145 98.4029 21.9145 98.9981 22.0611 99.6683L30.1961 153.41H67.0603C66.987 153.41 67.7931 137.928 65.3014 132.419Z" fill="#2E3038" stroke="#2E3038" stroke-linecap="round" stroke-linejoin="round"/>
<path d="M94.5426 88.354C94.5426 88.354 93.5898 89.3216 92.1973 90.9592L94.5426 88.354Z" fill="white"/>
<path d="M94.5426 88.354C94.5426 88.354 93.5898 89.3216 92.1973 90.9592" stroke="#2E3038" stroke-linecap="round" stroke-linejoin="round"/>
<path d="M94.3968 90.2148C94.3968 90.2148 93.2241 92.5223 92.5645 93.6388L94.3968 90.2148Z" fill="white"/>
<path d="M94.3968 90.2148C94.3968 90.2148 93.2241 92.5223 92.5645 93.6388" stroke="#2E3038" stroke-linecap="round" stroke-linejoin="round"/>
</svg>
