<svg width="96" height="24" viewBox="0 0 96 24" fill="none" xmlns="http://www.w3.org/2000/svg">
<circle cx="10" cy="12" r="10" fill="#184AFB"/>
<path d="M54.5 7V8.25H48.5V19H47V8.25H41V7H54.5ZM57.75 19.1719C56.75 19.1719 55.901 19.1042 55.2031 18.9688C54.5052 18.8281 53.9375 18.5885 53.5 18.25C53.0625 17.9115 52.7448 17.4583 52.5469 16.8906C52.349 16.3229 52.25 15.6094 52.25 14.75C52.25 13.7656 52.349 12.9531 52.5469 12.3125C52.7448 11.6667 53.0625 11.1536 53.5 10.7734C53.9375 10.3932 54.5052 10.1276 55.2031 9.97656C55.901 9.82552 56.75 9.75 57.75 9.75C58.4635 9.75 59.0807 9.80208 59.6016 9.90625C60.1276 10.0104 60.5755 10.1615 60.9453 10.3594C61.3203 10.5573 61.6224 10.7969 61.8516 11.0781C62.0859 11.3594 62.2682 11.6562 62.3984 11.9688C62.5339 12.276 62.625 12.638 62.6719 13.0547C62.724 13.4714 62.75 13.9115 62.75 14.375L62.625 14.875H53.75C53.75 15.5625 53.8177 16.1276 53.9531 16.5703C54.0885 17.0078 54.3125 17.3281 54.625 17.5312C54.9375 17.7344 55.349 17.8646 55.8594 17.9219C56.3698 17.974 57 18 57.75 18C58.4375 18 59.0052 17.9818 59.4531 17.9453C59.9062 17.9036 60.2656 17.8281 60.5312 17.7188C60.7969 17.6094 60.9818 17.4583 61.0859 17.2656C61.1953 17.0677 61.25 16.8125 61.25 16.5H62.75C62.75 16.9844 62.6641 17.3984 62.4922 17.7422C62.3255 18.0807 62.0469 18.3568 61.6562 18.5703C61.2656 18.7786 60.75 18.9297 60.1094 19.0234C59.474 19.1224 58.6875 19.1719 57.75 19.1719ZM57.75 11C57.25 11 56.8021 11.0104 56.4062 11.0312C56.0156 11.0521 55.6719 11.099 55.375 11.1719C55.0833 11.2396 54.8333 11.3411 54.625 11.4766C54.4167 11.6068 54.2474 11.763 54.1172 11.9453C53.9922 12.1224 53.8984 12.375 53.8359 12.7031C53.7786 13.026 53.75 13.4167 53.75 13.875H61.25C61.25 13.2656 61.1849 12.7891 61.0547 12.4453C60.9245 12.0964 60.7188 11.8099 60.4375 11.5859C60.1562 11.362 59.7943 11.2083 59.3516 11.125C58.9089 11.0417 58.375 11 57.75 11ZM73.7109 17.7656C73.6953 17.8281 73.5781 17.9844 73.3594 18.2344C73.2031 18.4219 72.9948 18.5885 72.7344 18.7344C72.474 18.875 72.125 18.9844 71.6875 19.0625C71.2552 19.1458 70.6849 19.1875 69.9766 19.1875C69.0339 19.1875 68.2292 19.138 67.5625 19.0391C66.8958 18.9453 66.3516 18.7995 65.9297 18.6016C65.5078 18.3984 65.1979 18.1406 65 17.8281C64.8073 17.5156 64.7109 17.1432 64.7109 16.7109C64.7109 16.2578 64.763 15.875 64.8672 15.5625C64.9766 15.2448 65.1328 14.9792 65.3359 14.7656C65.5443 14.5521 65.7943 14.3854 66.0859 14.2656C66.3776 14.1458 66.7083 14.0547 67.0781 13.9922C67.4531 13.9297 67.862 13.8906 68.3047 13.875C68.7474 13.8594 69.2188 13.8516 69.7188 13.8516C70.4323 13.8516 71.0286 13.8828 71.5078 13.9453C71.987 14.0026 72.3776 14.0781 72.6797 14.1719C72.987 14.2604 73.2188 14.3568 73.375 14.4609C73.5312 14.5651 73.6432 14.6615 73.7109 14.75C73.7109 14.1667 73.6849 13.6693 73.6328 13.2578C73.5859 12.8464 73.5052 12.5026 73.3906 12.2266C73.2812 11.9505 73.138 11.7318 72.9609 11.5703C72.7839 11.4036 72.5651 11.2786 72.3047 11.1953C72.0495 11.112 71.75 11.0599 71.4062 11.0391C71.0625 11.013 70.6693 11 70.2266 11C69.5391 11 68.9688 11.0182 68.5156 11.0547C68.0625 11.0859 67.7031 11.151 67.4375 11.25C67.1719 11.349 66.9844 11.487 66.875 11.6641C66.7656 11.8359 66.7109 12.0625 66.7109 12.3438H65.2109C65.2109 11.8698 65.2943 11.4688 65.4609 11.1406C65.6328 10.8125 65.9141 10.5469 66.3047 10.3438C66.7005 10.1354 67.2188 9.98438 67.8594 9.89062C68.5 9.79688 69.2891 9.75 70.2266 9.75C71.1432 9.75 71.9193 9.82552 72.5547 9.97656C73.1901 10.1276 73.7031 10.3932 74.0938 10.7734C74.4896 11.1536 74.7734 11.6667 74.9453 12.3125C75.1224 12.9531 75.2109 13.7656 75.2109 14.75V19H73.7109V17.7656ZM70.2266 18C70.888 18 71.4401 17.9688 71.8828 17.9062C72.3307 17.8438 72.6901 17.75 72.9609 17.625C73.2318 17.5 73.4245 17.3438 73.5391 17.1562C73.6536 16.9688 73.7109 16.75 73.7109 16.5C73.7109 16.25 73.6432 16.0391 73.5078 15.8672C73.3776 15.6901 73.1562 15.5469 72.8438 15.4375C72.5365 15.3281 72.1276 15.25 71.6172 15.2031C71.1068 15.151 70.4766 15.125 69.7266 15.125C68.9766 15.125 68.3698 15.138 67.9062 15.1641C67.4479 15.1901 67.0938 15.25 66.8438 15.3438C66.5938 15.4375 66.4245 15.5755 66.3359 15.7578C66.2526 15.9401 66.2109 16.1875 66.2109 16.5C66.2109 16.8125 66.2552 17.0677 66.3438 17.2656C66.4375 17.4583 66.625 17.6094 66.9062 17.7188C67.1875 17.8281 67.5911 17.9036 68.1172 17.9453C68.6484 17.9818 69.3516 18 70.2266 18ZM86.7188 19H85.2188V13.9219C85.2188 13.3802 85.1823 12.9245 85.1094 12.5547C85.0417 12.1797 84.8984 11.8776 84.6797 11.6484C84.4661 11.4193 84.1615 11.2552 83.7656 11.1562C83.375 11.0521 82.8594 11 82.2188 11C81.5156 11 80.9375 11.0599 80.4844 11.1797C80.0312 11.2943 79.6745 11.4583 79.4141 11.6719C79.1536 11.8802 78.9714 12.1328 78.8672 12.4297C78.7682 12.7266 78.7188 13.0573 78.7188 13.4219V19H77.2188V10H78.7188V11.4219C78.724 11.4062 78.7474 11.3542 78.7891 11.2656C78.8307 11.1771 78.9036 11.0729 79.0078 10.9531C79.1172 10.8281 79.263 10.6953 79.4453 10.5547C79.6328 10.4141 79.8724 10.2839 80.1641 10.1641C80.4609 10.0443 80.8177 9.94531 81.2344 9.86719C81.651 9.78906 82.1458 9.75 82.7188 9.75C83.2812 9.75 83.7682 9.78646 84.1797 9.85938C84.5964 9.92708 84.9505 10.0312 85.2422 10.1719C85.5391 10.3073 85.7786 10.4792 85.9609 10.6875C86.1484 10.8906 86.2969 11.125 86.4062 11.3906C86.4948 11.25 86.6328 11.0859 86.8203 10.8984C87.0078 10.7109 87.2682 10.5312 87.6016 10.3594C87.9401 10.1875 88.362 10.0443 88.8672 9.92969C89.3724 9.8099 89.9896 9.75 90.7188 9.75C91.3177 9.75 91.8307 9.79167 92.2578 9.875C92.6901 9.95312 93.0547 10.0729 93.3516 10.2344C93.6484 10.3906 93.8854 10.5859 94.0625 10.8203C94.2448 11.0547 94.3828 11.3281 94.4766 11.6406C94.5755 11.9479 94.6406 12.2943 94.6719 12.6797C94.7031 13.0599 94.7188 13.474 94.7188 13.9219V19H93.2188V13.9219C93.2188 13.3802 93.1823 12.9245 93.1094 12.5547C93.0417 12.1797 92.8984 11.8776 92.6797 11.6484C92.4661 11.4193 92.1615 11.2552 91.7656 11.1562C91.375 11.0521 90.8594 11 90.2188 11C89.5156 11 88.9375 11.0599 88.4844 11.1797C88.0312 11.2943 87.6745 11.4583 87.4141 11.6719C87.1536 11.8802 86.9714 12.1328 86.8672 12.4297C86.7682 12.7266 86.7188 13.0573 86.7188 13.4219V19Z" fill="#56585E"/>
</svg>
